<svg width="24" height="24" viewBox="0 0 24 24" fill="none" xmlns="http://www.w3.org/2000/svg"><path fill-rule="evenodd" clip-rule="evenodd" d="M12.5 20a7.5 7.5 0 1 0 0-15 7.5 7.5 0 0 0 0 15z" fill="none"/><path d="M0 0h24v24H0z"/><path d="M2 2h20v20H2z"/><path fill-rule="evenodd" clip-rule="evenodd" d="M12 22c5.523 0 10-4.477 10-10S17.523 2 12 2 2 6.477 2 12s4.477 10 10 10zm1.06-10l3.47-3.47a.75.75 0 0 0-1.06-1.06L12 10.94 8.53 7.47a.75.75 0 1 0-1.06 1.06L10.94 12l-3.47 3.47a.75.75 0 1 0 1.06 1.06L12 13.06l3.47 3.47a.75.75 0 1 0 1.06-1.06L13.06 12z" fill="#000"/></svg>