<svg xmlns="http://www.w3.org/2000/svg" width="14" height="16" viewBox="0 0 14 16"><g fill="none" fill-rule="evenodd" stroke="#999" stroke-linecap="round" stroke-linejoin="round"><path d="M13.494 15.28l-12.181.003v-1.787c0-.724.145-1.376.43-1.935a3.603 3.603 0 0 1 1.24-1.383 6.503 6.503 0 0 1 1.723-.795 8.735 8.735 0 0 1 1.235-.272"/><path d="M8.897 9.12c.413.067.803.154 1.165.263.64.193 1.22.46 1.725.795.533.353.95.818 1.237 1.383.286.56.431 1.211.431 1.935v1.787M4.608 7.338c-.562-1.018-.847-2.075-.847-3.146 0-.951.313-1.646.958-2.124.675-.502 1.571-.755 2.664-.755 1.093 0 1.989.253 2.664.755.645.478.958 1.173.958 2.124 0 1.104-.278 2.182-.827 3.207-.497.927-1.1 1.565-1.79 1.907a2.855 2.855 0 0 1-.987.164c-.378 0-.67-.062-.87-.124-.726-.34-1.374-1.016-1.923-2.008z"/></g></svg>