<?xml version="1.0" encoding="utf-8"?>
<!-- Svg Vector Icons : http://www.onlinewebfonts.com/icon -->
<!DOCTYPE svg PUBLIC "-//W3C//DTD SVG 1.1//EN" "http://www.w3.org/Graphics/SVG/1.1/DTD/svg11.dtd">
<svg version="1.1" xmlns="http://www.w3.org/2000/svg" xmlns:xlink="http://www.w3.org/1999/xlink" x="0px" y="0px" viewBox="0 0 1000 1000" enable-background="new 0 0 1000 1000" xml:space="preserve">
<metadata> Svg Vector Icons : http://www.onlinewebfonts.com/icon </metadata>
<g><path d="M927,836H332h-28H73c-35,0-63-28-63-56v-63v-63v-63c49,0,91-42,91-91s-42-91-91-91v-63v-56v-63c0-35,28-63,63-63h231h28h595c35,0,63,28,63,63v91v28v63c-49,0-91,42-91,91s42,91,91,91v63v91v28C990,808,962,836,927,836L927,836z M927,640c-56-21-91-77-91-140s35-119,91-140V255c0-14-14-28-28-28H346v49c0,7-7,14-14,14h-28c-14,0-21-7-21-21v-42H101c-14,0-28,14-28,28v105c56,21,91,77,91,140s-35,119-91,140v105c0,14,14,28,28,28h182v-42c0-7,7-14,21-14h28c7,0,14,7,14,14v49h553c14,0,28-14,28-28V640L927,640z M332,654h-28c-14,0-21-7-21-14v-91c0-7,7-14,14-14h28c7,0,14,7,14,14v91C346,647,339,654,332,654L332,654z M332,472h-28c-14,0-21-7-21-14v-98c0-7,7-14,14-14h28c7,0,14,7,14,14v91C346,465,339,472,332,472L332,472z"/></g>
</svg>