<svg width="15" height="16" viewBox="0 0 15 16" fill="none" xmlns="http://www.w3.org/2000/svg"><path d="M10.9 8a6.667 6.667 0 0 0-1.533-.887 3.673 3.673 0 1 0-4.74 0 6.573 6.573 0 0 0-3.967 6.08v.14a1.287 1.287 0 0 0 1.333 1.334H8.56a3.626 3.626 0 0 0 2.1.666A3.668 3.668 0 1 0 10.9 8zM7 2a2.333 2.333 0 1 1 .04 4.667H7A2.333 2.333 0 0 1 7 2zm0 9.667a3.58 3.58 0 0 0 .4 1.666H1.993v-.126A5.12 5.12 0 0 1 6.66 8h.453a4.9 4.9 0 0 1 1.894.413A3.66 3.66 0 0 0 7 11.667zm5.473-.26l-1.8 1.8a.667.667 0 0 1-.926 0l-.934-.867a.668.668 0 0 1 .907-.98l.467.433 1.333-1.333a.666.666 0 0 1 .94.94l.013.007z" fill="#2E3137"/></svg>