<svg width="244" height="244" viewBox="0 0 244 244" fill="none" xmlns="http://www.w3.org/2000/svg"><g clip-path="url(#clip0)"><path d="M0 0h244v244H0V0z" fill="url(#paint0_linear)" fill-opacity=".7"/><path d="M211.093 169.236c.557 0 1.021-.093 1.393-.465.464-.65.185-1.485-.372-2.414-.65-1.207-1.857-2.507-2.321-3.343.185.093 1.3.557 1.393-1.021.092-.836-2.415-.371-3.9-3.621-.743-1.022-1.672-1.858-2.6-2.601.185-.278.464-.557.742-.835a24.664 24.664 0 0 0 2.415-3.25c.093-.186.278-.372.371-.65 1.3 1.114 2.507 1.207 1.95-.093-.557-1.486-.65-2.786-.464-4.736.186-1.95-7.522-6.593-10.679-6.221-1.764.185-2.693.743-2.693.743s-3.992 3.064-3.064 3.621c.372.186.929.372 1.486.372v.092l-.279 2.229c-.093.929-.093 1.857-.093 2.693-2.971-1.857-5.942-3.807-6.685-3.436-.557.279-.65.557-.557.929-.186-.093-.372-.093-.558-.186a3.33 3.33 0 0 0-1.021-.186c-7.986-.836-12.629 12.257-13.65 15.507-.186.465-.093.929.186 1.207.371.465 1.021 1.115 1.671 1.022h.093c.093-.093.464-.186.929-.186-.65 2.229-1.115 4.272-1.208 6.036-.092.464-.185.836-.278 1.3-.186.928-.186 1.95-.186 2.879v1.671c0 .836.464 1.671 1.114 2.136v.092l.372.186 1.114.464.093.093.836.372.185.093 3.808 1.578.185.093.557.279c.465.185.836.185 1.3 0 .65.185 1.3.371 1.95.65 6.872 2.043 15.693 3.342 17.643 1.485 1.579-1.485 2.693-4.457 3.25-6.314.093-.186.093-.464.186-.557.093-.279.093-.464.186-.65 1.671.186 3.064.093 3.993-.279 1.671-1.114 1.764-3.714 1.207-6.778z" fill="#D6FFDE"/><path fill-rule="evenodd" clip-rule="evenodd" d="M196.421 173.786c-66.207-10.029-118.485-3.25-157.485 7.15-4.643 19.036-1.672 39.928 10.493 45.128l14.021-.185c.929-.372 1.95-.743 2.971-1.115 12.258-5.385 21.358-2.878 32.129.836l123.779-1.207c2.135-1.207 4.085-2.507 5.85-3.993 13.092-10.864 19.128-21.543 20.15-35.843-13-3.621-29.808-7.429-51.908-10.771z" fill="#D6FFDE"/><path d="M38.471 237.764c23.865 24.979 65.929 45.779 126.936 36.029 33.057-5.293 64.443-21.822 87.286-35.472l-214.222-.557z" fill="#F59079"/><path d="M225.207 208.886c9.936 4.55 26.093 7.893 29.528 18.85 4.086 13-10.4 19.964-55.342 21.357-39.836 1.207-53.765 16.064-81.715 16.064-51.35.093-93.135-22.378-78-43.457 7.708-10.771 66.486-19.128 90.815-19.871 33.614-1.022 76.7-1.393 94.714 7.057z" fill="#DFE693"/><path d="M239.6 217.429a13.703 13.703 0 0 0-1.95-3.622c-4.365-1.764-8.822-3.25-12.536-5.014-18.014-8.357-61.1-8.079-94.714-6.964-17.365.557-52.372 4.921-73.729 11.328-11.236 17.643 23.772 36.122 66.672 36.029 23.678 0 35.471-12.536 69.271-13.65 38.164-1.115 50.421-7.057 46.986-18.107z" fill="#BFD68C"/><path d="M72.55 223.929c-20.243 1.578-29.622 6.778-21.543 9.285 8.079 2.6-5.664 5.015 2.043 6.779 7.707 1.764 20.521-.836 29.343.557 8.914 1.393 11.607-3.807 5.107-5.014 0 0 13.928-2.693 19.685-3.157 5.758-.465 5.108-4.086 5.108-4.086s1.95 5.107 13.278 4.086c11.329-1.022 2.972 1.485 22.936 1.671 19.871.186 30.736-2.136 24.421-3.528-6.407-1.3 2.786-3.343 5.85-3.065 3.065.279 9.1 9.657 30.55 9.936 21.357.278 36.4-8.636 17.55-11.979-18.943-3.342-38.164-8.821-38.164-8.821l-101.678 2.321-14.486 5.015z" fill="#66992B"/><path d="M76.636 199.229c-7.522.464-14.208-5.386-15.6-13.558-1.393-8.728 3.992-17.271 11.978-18.664.464-.093.929.186 1.393.186 7.521-.464 14.207 5.385 15.6 13.557.65 4.178-.186 8.45-2.414 11.886-2.229 3.528-5.665 5.757-9.565 6.407a6.309 6.309 0 0 1-1.392.186zm-1.95-27.672c-.372 0-.65.093-1.022.093-5.664.929-9.378 6.871-8.357 13.278.929 5.943 5.757 10.215 11.05 9.936.371 0 .65-.093 1.021-.093 2.693-.464 5.015-2.042 6.593-4.55 1.579-2.507 2.229-5.664 1.765-8.728-.929-5.943-5.665-10.214-11.05-9.936z" fill="#3A3A3A"/><path d="M78.121 197.929c-7.428.464-14.021-5.386-15.321-13.465-1.393-8.635 3.9-16.714 11.793-18.014.464-.093.928-.093 1.485-.186 7.429-.464 14.022 5.386 15.322 13.465.65 4.178-.186 8.264-2.322 11.7-2.228 3.435-5.571 5.664-9.378 6.314-.65.093-1.115.186-1.579.186zm-1.95-27.3c-.371 0-.65.093-1.021.093-5.572.928-9.286 6.778-8.265 13.092.929 5.85 5.665 10.122 10.958 9.843.371 0 .65-.093 1.021-.093 2.693-.464 5.014-2.043 6.593-4.457a12.118 12.118 0 0 0 1.671-8.635c-.928-5.943-5.664-10.122-10.957-9.843z" fill="#515252"/><path d="M91.307 179.729c-1.3-8.079-7.893-13.836-15.322-13.465-.464 0-1.021.093-1.485.186-1.765.279-3.343.929-4.829 1.857 1.207-.65 2.6-1.114 4.086-1.393.464-.093.928-.092 1.486-.185 7.428-.465 14.02 5.385 15.32 13.464.65 4.179-.185 8.264-2.32 11.7-1.208 1.95-2.786 3.436-4.643 4.55 2.135-1.114 3.993-2.786 5.385-5.014 2.136-3.436 2.972-7.522 2.322-11.7z" fill="#6B6B6B"/><path fill-rule="evenodd" clip-rule="evenodd" d="M66.793 194.771a318.967 318.967 0 0 1-8.729-.464l-6.779-10.121-5.014 5.2c-.65.928-1.114 1.764-.743 3.25l7.986 38.35c.279 1.3 1.021 2.043 1.671 2.321l5.2 2.879c1.022.557 2.136.65 3.25.371l5.386-1.3-2.228-40.486z" fill="#4A9E46"/><path fill-rule="evenodd" clip-rule="evenodd" d="M110.157 208.421s-4.643-20.985-7.15-33.242c-.279-1.3-1.114-1.486-2.043-1.3-3.157.557-6.964 1.114-10.121 2.042l-3.622 1.208c-3.529 1.3-6.221 2.414-8.728 4.828-3.436-1.3-7.708-1.021-11.7-.65l-3.808.465c-3.9.65-7.335 1.485-11.05 2.228-.093 0-.65.093-.835.464-.279.372-.093.836-.093.836l10.307 49.4c.279 1.3 1.578 2.136 2.786 1.857l20.893-4.736 4.364-1.021 7.893-1.764c9.193-1.95 14.95-10.307 12.907-20.615z" fill="#4A9E46"/><path fill-rule="evenodd" clip-rule="evenodd" d="M78.493 181.864c-3.436-1.3-7.708-1.021-11.7-.65l-3.808.465c-3.9.65-7.335 1.485-11.05 2.228-.093 0-.65.093-.835.465-.279.371-.093.835-.093.835L61.314 234.7c.279 1.3 1.578 2.136 2.786 1.857l25.257-5.757c-2.043-16.436-10.864-48.936-10.864-48.936z" fill="#60BB55"/><path opacity=".8" fill-rule="evenodd" clip-rule="evenodd" d="M104.028 180.1c-.371-1.764-.743-3.436-1.021-4.921-.279-1.3-1.114-1.486-2.043-1.3-3.157.557-6.964 1.114-10.121 2.042l-3.622 1.208c-3.529 1.3-6.221 2.414-8.728 4.828-3.436-1.3-7.708-1.021-11.7-.65l-3.808.465c-2.042.278-3.9.742-5.85 1.114 3.436-.465 17.272-2.229 21.729.65 0 0 4.921-6.129 21.45-8.172 0 0 1.393-.185 2.043 1.207 1.021 1.579 1.485 3.25 1.671 3.529z" fill="#60BB55"/><path fill-rule="evenodd" clip-rule="evenodd" d="M88.614 209.536c-10.957 1.114-19.036 10.028-17.921 21.171.185 1.486.464 2.879.835 4.179l25.907-5.85c5.015-1.022 9.008-4.086 11.236-8.357-3.528-7.615-11.421-11.979-20.057-11.143z" fill="#60BB55"/><path fill-rule="evenodd" clip-rule="evenodd" d="M70.971 232.75v.186c.186.65.279 1.393.557 2.043l18.293-4.179c-.835-6.314-2.693-13.743-4.271-20.614-7.614 1.95-13.279 7.707-14.672 15.135v.186c0 .186-.093.372-.093.65v.372c0 .185 0 .371-.092.557v2.878c0 .372 0 .65.093 1.022 0 .371.092.743.092 1.114-.093 0 0 .371.093.65z" fill="#84C368"/><path fill-rule="evenodd" clip-rule="evenodd" d="M92.607 186.229c-5.757 1.114-9.472 6.778-8.357 12.628 1.114 5.85 6.686 9.658 12.443 8.543 5.757-1.114 9.471-6.778 8.357-12.628-1.115-5.85-6.686-9.75-12.443-8.543z" fill="#fff"/><path fill-rule="evenodd" clip-rule="evenodd" d="M85.642 195.607c.93 6.036 6.593 10.029 12.443 9.1 2.508-.464 4.643-1.671 6.222-3.436-1.393 3.065-4.179 5.479-7.615 6.129-5.757 1.114-11.328-2.693-12.442-8.543-.558-2.971.093-5.943 1.764-8.264-.557 1.578-.65 3.25-.371 5.014z" fill="#E1EDEE"/><path fill-rule="evenodd" clip-rule="evenodd" d="M104.492 193.379c1.393 3.621-.371 7.707-3.899 9.1-3.529 1.392-7.522-.372-8.915-3.993-1.393-3.622.372-7.708 3.9-9.1 1.207-.465 2.415-.557 3.622-.372-.929.929-1.3 2.322-.836 3.715.65 1.764 2.6 2.599 4.271 1.949a3.257 3.257 0 0 0 1.765-1.578c.093 0 .092.093.092.279z" fill="#303030"/><path d="M99.014 194.679c.929.835 2.043.928 1.207 1.95-.836 1.021-2.228 1.114-3.25.278-.928-.835-1.114-2.321-.278-3.25.835-.928 1.3.279 2.321 1.022z" fill="#fff"/><path fill-rule="evenodd" clip-rule="evenodd" d="M68.279 191.057c-6.222 1.207-10.308 7.429-9.1 13.743 1.207 6.407 7.242 10.493 13.557 9.286 6.221-1.207 10.307-7.429 9.1-13.743-1.3-6.407-7.336-10.493-13.557-9.286z" fill="#fff"/><path fill-rule="evenodd" clip-rule="evenodd" d="M60.664 201.271c1.022 6.5 7.15 10.958 13.557 9.843 2.693-.464 5.107-1.857 6.779-3.807-1.486 3.343-4.457 5.943-8.357 6.686-6.222 1.207-12.35-2.972-13.557-9.286-.65-3.25.185-6.407 1.857-9.007a14.119 14.119 0 0 0-.279 5.571z" fill="#E1EDEE"/><path fill-rule="evenodd" clip-rule="evenodd" d="M81.093 198.95c1.486 3.9-.465 8.357-4.272 9.843-3.9 1.486-8.171-.464-9.657-4.364-1.486-3.9.464-8.357 4.272-9.843 1.3-.464 2.6-.65 3.9-.372-1.022 1.022-1.486 2.6-.929 3.993.743 1.857 2.786 2.879 4.643 2.136.836-.371 1.486-.929 1.857-1.672.093 0 .186.186.186.279z" fill="#303030"/><path d="M74.686 199.972c1.021.928 2.321 1.299 1.392 2.414-.928 1.114-2.507 1.207-3.528.278-1.022-.928-1.207-2.507-.279-3.621.929-1.114 1.393 0 2.415.929z" fill="#fff"/><path opacity=".5" fill-rule="evenodd" clip-rule="evenodd" d="M81.557 210.372s-1.393 9.285 8.543 8.728c0-3.436.186-6.593.186-6.593l-8.729-2.135z" fill="url(#paint1_linear)"/><path fill-rule="evenodd" clip-rule="evenodd" d="M81.464 210.464s.557 9.472 10.4 6.779c0 0-.093-3.9.093-7.429-2.229-2.135-10.493.65-10.493.65z" fill="#FEDE02"/><path fill-rule="evenodd" clip-rule="evenodd" d="M87.035 217.614c-5.57-2.042-3.25-6.314-3.25-6.314l-.557-1.393c-1.021.279-1.764.557-1.764.557s.279 6.129 5.572 7.15z" fill="#F79B1B"/><path fill-rule="evenodd" clip-rule="evenodd" d="M81.928 210.464s2.786 6.5 9.193 6.129c0 0-.185-3.436-.093-6.5-1.95-2.043-9.1.371-9.1.371z" fill="#D76066"/><path fill-rule="evenodd" clip-rule="evenodd" d="M86.107 211.393s.836 1.857 2.6 2.321c-.279-1.485-.371-2.785-.371-2.785l-2.23.464z" fill="#B8272B"/><path fill-rule="evenodd" clip-rule="evenodd" d="M81.464 210.186s.836-4.922 6.314-5.665c4.643-.371 7.336 4.829 7.336 4.829s-.928.743-2.321 1.207c-4.086 1.3-12.35 3.157-11.329-.371z" fill="#FEDE02"/><path fill-rule="evenodd" clip-rule="evenodd" d="M95.207 209.257c-.836.279-3.343 1.114-8.078 1.207-4.736.093-4.458-2.321-4.179-3.342-1.114 1.485-1.393 2.971-1.393 2.971-1.021 3.528 7.243 1.671 11.329.371 1.3-.371 2.321-1.207 2.321-1.207z" fill="#FBC00B"/><path fill-rule="evenodd" clip-rule="evenodd" d="M90.936 206.843c.835.093 1.671.093 2.321-.093-1.3-1.207-3.064-2.414-5.386-2.229-.371.093-.835.093-1.207.186.836 1.022 2.322 1.857 4.272 2.136z" fill="#FFF24D"/><path fill-rule="evenodd" clip-rule="evenodd" d="M174.786 133.114c0 .093 0 .186-.093.279v1.114c-.093 3.9-.557 7.8-1.393 11.793-.093.186-.093.464-.186.65-.186 1.021-.464 1.95-.743 2.971 0 .093 0 .186-.093.279l-.278 1.114c0 .093 0 .186-.093.186a89.453 89.453 0 0 1-1.486 4.643c-.093.371-.278.743-.464 1.114h-.093c-.557.093-1.114.093-1.671.186h-.372l-2.507.279h-.371c-2.415.278-4.736.557-7.15.835-.279 0-.557.093-.743.093-2.043.279-4.086.464-6.036.743h-.371c-1.672.186-3.25.464-4.922.65-2.693-.093-5.385-.279-7.985-.372 0-1.671 0-3.342-.186-5.014v-.371c-.093-1.579-.279-3.25-.464-4.829 0-.186-.093-.464-.093-.65s0-.278-.093-.464v-.279a82.228 82.228 0 0 0-1.486-7.8c0-.092 0-.185-.093-.185-.464-2.043-1.114-4.086-1.764-6.129 0 0 1.114-.836 2.507-1.764.093 0 .093-.093.186-.186s.278-.186.371-.278c.093-.093.279-.186.372-.279.742-.464 1.485-.929 2.135-1.393.093-.093.186-.093.279-.186a38.183 38.183 0 0 1 2.321-1.3c.558-.185 2.229-.464 4.365-.65h.371c.186 0 .372 0 .557-.093h.465c3.064-.278 6.964-.557 10.307-.742h.278c3.715-.186 6.593-.372 6.779-.372.185 0 .557.557.928 1.022.093.093.186.185.186.278.279.186.464.372.836.465.464 0 1.114-.279 1.764-1.486l2.229-.279c.185 0 .371 0 .557-.093h.371c.65-.092 1.207-.185 1.857-.185h.093s0 .092.093.278c.279.929.929 3.622.929 5.293.185.65.185.929.093 1.114z" fill="#CE7057"/><path opacity=".25" d="M145.349 142.586c-.464-1.207-.742-2.507-1.021-3.714-.186-1.3-.279-2.6-.557-3.9-.279-1.115-.836-2.043-1.857-2.786-.836-.65-1.857-1.115-2.414-1.95-.093.093-.186.093-.279.185.464.558 1.114.929 1.764 1.393 1.393.929 2.136 2.043 2.414 3.529.558 2.693.743 5.293 1.765 7.893 0 .093.093.093.185.093v-.743zm-8.264 7.15c0-.186-.093-.464-.093-.65.558-1.579.836-3.343 0-4.736-.557-.929-1.114-1.486-1.3-2.6-.185-1.114-.464-2.321-.464-3.528 0-1.115.093-2.136.557-3.25.279-.836.743-1.672.372-2.508.093 0 .093-.093.185-.185.372.464.372 1.114.186 1.671-.371 1.114-.836 2.229-.928 3.436-.093 1.207.092 2.507.371 3.714.093.743.186 1.486.65 2.136.279.464.743.835 1.021 1.393.558 1.578.186 3.435-.557 5.107z" fill="#9A67AA"/><path fill-rule="evenodd" clip-rule="evenodd" d="M141.543 134.786s1.578 5.478 2.135 11.05c.743 5.571.557 11.143.372 11.7-.279 1.114-.186 1.579-.186 1.579s.743-1.486.743-2.044c0-.742.186-6.499-.743-12.442-.743-5.943-2.693-11.886-2.879-12.35-.557-.929.558 2.507.558 2.507z" fill="url(#paint2_linear)"/><path fill-rule="evenodd" clip-rule="evenodd" d="M141.821 129.028c-2.136.836-8.171 5.2-8.171 5.293 2.785 8.822 4.178 17.458 4.085 25.629 2.693.186 5.293.278 7.986.371 0 0 .929-7.614-.186-15.507-.65-7.8-3.435-15.971-3.714-15.786z" fill="#E19671"/><path fill-rule="evenodd" clip-rule="evenodd" d="M141.543 134.786c-1.579.743-3.158 1.485-4.736 2.135a79.915 79.915 0 0 1 2.971 20.429c.186-.093.372-.278.557-.371 0-6.315-.835-12.815-2.507-19.408 1.393-.65 2.693-1.207 4.086-1.857-.186-.185-.279-.557-.371-.928z" fill="#CE7057"/><path fill-rule="evenodd" clip-rule="evenodd" d="M144.143 157.164c-1.3 0-2.6 0-3.808-.093-.185.093-.371.279-.557.372 1.486.093 2.879.186 4.365.186v-.465z" fill="#FFC392"/><path fill-rule="evenodd" clip-rule="evenodd" d="M169.028 133.3c.186 7.243-.835 14.579-2.971 21.822-.186-.186-.371-.279-.557-.465a73.431 73.431 0 0 0 2.6-20.428c.371-.279.65-.65.928-.929z" fill="#9E3B3B"/><path fill-rule="evenodd" clip-rule="evenodd" d="M169.028 133.3c-6.593.372-13.093.743-19.685 1.207v.743c6.221-.371 12.442-.743 18.757-1.021.371-.279.65-.65.928-.929z" fill="#9E3B3B"/><path fill-rule="evenodd" clip-rule="evenodd" d="M166.057 155.121c.278 0-.464-.464-.557-.464-2.415.186-14.95 1.207-14.95 1.207 0 .186 0 .465-.093.65.093 0 13-1.114 15.6-1.393z" fill="#FFC392"/><path fill-rule="evenodd" clip-rule="evenodd" d="M161.6 149.457c-.557.093-3.436.372-4.457.279-.465-.093-.836-.186-.929-.279.186.093.371.093.743.186 1.021.093 3.9-.186 4.457-.279 2.322-.371 2.043-2.971 1.95-4.364 0-.279-.186-2.043-.464-2.693 0 0 0-.093-.093-.093.093 0 .186.093.279.279.278.65.371 2.414.464 2.693.093 1.3.371 3.9-1.95 4.271z" fill="#E19671"/><path fill-rule="evenodd" clip-rule="evenodd" d="M161.321 149.364c-.557.093-3.436.372-4.457.279-.279 0-.557-.093-.743-.186-.371-.093-.464-.371-.464-.743-.093-2.228 0-4.457.093-6.778 0-.093.092-.093.185-.093.186 0 .465.093.65.186.186.092.372.185.465.278l.835.557c.557.465 1.022.929 1.486 1.393.372-.371.836-.743 1.207-1.021l1.115-.836c.464-.278.835-.65 1.021-.279 0 0 0 .093.093.093.278.65.371 2.415.464 2.693.093 1.486.372 3.993-1.95 4.457z" fill="#9E3B3B"/><path fill-rule="evenodd" clip-rule="evenodd" d="M175.25 155.307l-.279 1.579v.185l-.464 2.508-.186.928-.371 1.95v.279l-1.3 7.521-.279 1.486-.186 1.114-.092.372-1.486 8.728-.093.557-1.393 7.986-14.578.372-7.986-1.208-.557-.093-9.286-1.392-1.114-.186-10.029-1.486-.557-.093-6.036-.928h-.185v-2.229l.092-12.257v-.836l.186-14.857c0-.093-.093-.186-.093-.278 0-.279-.093-.558 0-.929.093-2.043.836-5.664.836-5.664l2.507.186h.743l2.414.185c.929 1.114 1.672 1.486 2.229 1.486.371 0 .65-.186.836-.464.557-.557.835-1.3 1.207-1.3.093 0 1.3 0 3.157.093h.557c1.3 0 2.879.092 4.55.092h.371c.65 0 1.3 0 1.95.093h1.208c3.528.093 7.335.186 10.678.372h.65c1.022.092 1.95.093 2.786.185h.371c.929.093 1.857.093 2.507.186h.372c.836.093 1.393.186 1.764.279 1.672.371 5.107 1.671 8.172 2.785.278.093.464.186.742.279 3.065 1.3 5.665 2.414 5.665 2.414z" fill="#E19671"/><path fill-rule="evenodd" clip-rule="evenodd" d="M160.671 149.921c3.529.836 14.579 5.386 14.579 5.386l-6.129 35.193-14.578.371c0-.092 5.385-41.135 6.128-40.95z" fill="#CE7057"/><path fill-rule="evenodd" clip-rule="evenodd" d="M162.807 156.143l7.986 2.321-4.643 27.857-.929-.557L169.4 159.3l-6.872-1.95.279-1.207z" fill="#9E3B3B"/><path fill-rule="evenodd" clip-rule="evenodd" d="M158.443 185.671l6.778.093.929.557-7.8.279.093-.929zm-18.108-9.285c-.65.093-3.807.186-4.828-.093-.557-.093-.836-.279-1.022-.464.186.093.465.185.743.278 1.115.279 4.272.093 4.829.093 2.6-.371 2.507-3.807 2.6-5.757 0-.464 0-2.786-.186-3.714 0-.093 0-.093-.093-.186.093 0 .279.093.279.371.278.929.186 3.25.186 3.715 0 1.95.092 5.385-2.508 5.757z" fill="#FFC392"/><path fill-rule="evenodd" clip-rule="evenodd" d="M140.057 176.2c-.65.093-3.807.186-4.829-.093a3.162 3.162 0 0 1-.743-.278c-.371-.186-.464-.558-.464-1.022.186-3.064.464-6.036.743-9.1 0-.093.186-.093.279-.093.278.093.464.093.65.279.185.093.371.279.557.371.278.279.65.557.835.836.558.65 1.022 1.3 1.393 1.95.465-.464.929-.929 1.486-1.3.371-.371.836-.65 1.3-.929.557-.371 1.021-.742 1.207-.278 0 0 0 .093.093.186.279.928.186 3.25.186 3.714-.186 1.95-.093 5.386-2.693 5.757zm-14.486-21.078l-.185 27.021.928-.65.464-25.443-1.207-.928z" fill="#CE7057"/><path fill-rule="evenodd" clip-rule="evenodd" d="M125.571 155.122l25.536.835.093.929-24.422-.836-1.207-.928z" fill="#CE7057"/><path fill-rule="evenodd" clip-rule="evenodd" d="M125.386 182.143c-.372-.093.742-.65.928-.65 3.343.371 21.729 2.136 21.729 2.136l-.093 1.021c0-.093-19.036-1.95-22.564-2.507z" fill="#EFAE92"/><path d="M155.378 184.557l1.672-12.257s-31.479 11.886-38.165 6.964v9.193l36.493-3.9z" fill="#CE7057"/><path fill-rule="evenodd" clip-rule="evenodd" d="M112.478 206.843c.093.836.279 1.579.465 2.414.093.465.185.836.278 1.3 0 .093 0 .186.093.279.093.278.093.557.186.835 0 .093 0 .186.093.279 0 .186.092.372.092.557 0 .093.093.279.093.372.093.371.186.835.372 1.3.093.464.278.928.464 1.485.279.836.557 1.765.836 2.693.093.372.278.743.371 1.115.093.371.279.835.464 1.207 0 .092.093.185.093.371 1.393 3.807 3.065 7.336 4.55 8.172h2.136c.464 0 1.022-.093 1.486-.093 1.021-.093 2.043-.093 3.157-.186h.557c1.3-.093 2.6-.093 3.9-.186h.743c2.043-.093 4.178-.185 6.221-.278h1.393c2.229-.093 4.457-.186 6.593-.372h.464c.836 0 1.672-.093 2.508-.093h.557c.371 0 .65 0 1.021-.093h.279l4.457-.278h.65c.65 0 1.207-.093 1.857-.093.557-.093 1.021-.279 1.578-.371.093 0 .279-.093.372-.093 2.6-.557 5.293-1.207 7.986-1.765.928-.185 1.857-.371 2.785-.65.093 0 .186.001.279-.092.464-.093 1.021-.186 1.486-.372.185 0 .278-.093.464-.093.093 0 .186-.092.278-.092.372-.743.65-1.486.929-2.322l.279-.836c.185-.464.371-.928.464-1.392.093-.279.186-.465.279-.743.278-.929.557-1.765.835-2.693.093-.279.186-.557.186-.743.093-.186.093-.464.186-.65l.557-2.507c0-.186.093-.372.093-.465.278-1.392.464-2.878.65-4.271v-.464c.092-.557.092-1.022.092-1.579v-6.407c0-.278 0-.557-.092-.836-.093-1.3-.279-2.692-.465-3.992 0-.186-.093-.372-.093-.65 0-.186-.092-.372-.092-.558-.093-.65-.279-1.207-.372-1.857 0-.093-.093-.185-.093-.371s-.093-.372-.185-.557c0-.186-.093-.279-.093-.465v-.093l-.093-.464c-.279-.836-.464-1.578-.836-2.414 0-.093-.093-.186-.093-.279 0-.092-.092-.185-.092-.185a3.335 3.335 0 0 0-.651-.929l-.185-.186c-.093-.092-.186-.185-.372-.278-.185-.186-.464-.279-.65-.372-.185-.093-.278-.093-.464-.185h-.093c-.093 0-.185 0-.278-.093a53.127 53.127 0 0 0-2.508-.557c-.092 0-.185 0-.185-.093-.186 0-.372-.093-.557-.093-.279-.093-.465-.093-.743-.186a24.696 24.696 0 0 0-1.207-.278c-.279-.093-.65-.093-.929-.186-.928-.186-1.95-.464-2.879-.65-.185 0-.371-.093-.557-.093a571.74 571.74 0 0 0-1.393-.278c-1.114-.186-2.135-.465-2.971-.558-.093 0-.279-.092-.371-.092-.372-.093-.65-.093-.929-.186h-.464c-.65-.093-2.043-.093-3.9 0h-1.486c-.836 0-1.671.093-2.6.186h-1.021c-1.3.092-2.6.185-3.993.278h-.465c-.65.093-1.3.093-1.95.186-2.414.186-4.921.371-7.15.557h-.557c-2.878.278-5.385.464-6.964.65h-.464c-.372 0-.743.093-.929.093h-.278c-.186 0-.279.185-.558.464-.092.186-.278.371-.371.464-.186.186-.371.465-.557.65l-.093.093-.093.093c-.278.186-.557.372-.836.464-.278.093-.65 0-1.021-.185-.279-.093-.557-.186-.929-.279-.092 0-.185-.093-.371-.093-.836-.278-1.857-.557-2.507-.743h-3.343s-1.021 1.95-1.764 4.086l-.279.836c-.093.371-.278.743-.371 1.114-.093.186-.093.372-.093.557 0 .093 0 .186-.093.279-.093.464-.093.836-.093 1.114v.279c-.928 4.828-.835 9.843-.093 14.764z" fill="#E19671"/><path fill-rule="evenodd" clip-rule="evenodd" d="M162.435 186.693c0-.186 1.579 7.986 1.579 16.529.186 8.542-1.114 17.55-1.114 18.292.093 1.95-.186 2.693-.186 2.693s-.65-2.414-.557-3.343c.093-.928 1.578-10.4 1.3-19.407 0-9.007-1.764-17.55-1.857-17.828.093-1.022.835 3.064.835 3.064z" fill="url(#paint3_linear)"/><path fill-rule="evenodd" clip-rule="evenodd" d="M157.7 180.564c2.786.372 12.071 2.415 15.971 3.343 1.114.279 2.043 1.115 2.507 2.322 4.272 11.607 3.065 25.535-2.135 37.421-5.293 1.114-10.4 2.322-15.322 3.436-.093.65 1.765-11.515 1.3-23.493-.093-11.979-2.6-23.772-2.321-23.029z" fill="#CE7057"/><path fill-rule="evenodd" clip-rule="evenodd" d="M162.435 186.693c3.25.464 6.593.929 9.936 1.393 2.693 10.028 2.229 21.45-.743 31.757a4.28 4.28 0 0 0-.928-.464c2.507-9.843 2.878-20.615.557-30.272-2.879-.371-5.757-.743-8.636-1.207-.093-.278-.093-.743-.186-1.207z" fill="#9E3B3B"/><path fill-rule="evenodd" clip-rule="evenodd" d="M162.992 220.771c2.508-.464 5.108-.928 7.708-1.392.278.185.65.371.928.464-2.971.65-5.85 1.3-8.728 1.857 0-.279.092-.557.092-.929z" fill="#FFC392"/><path fill-rule="evenodd" clip-rule="evenodd" d="M135.414 214.457c.743.093 4.643.186 5.943-.093.65-.185 1.021-.278 1.207-.557-.186.093-.557.186-.929.372-1.3.278-5.107.185-5.942.092-3.158-.371-3.436-4.642-3.529-7.057 0-.557-.093-3.343.279-4.55 0-.093 0-.092.092-.185-.185 0-.278.093-.371.464-.372 1.207-.279 3.993-.279 4.55.186 2.414.372 6.593 3.529 6.964z" fill="#EFAE92"/><path fill-rule="evenodd" clip-rule="evenodd" d="M135.693 214.271c.743.093 4.642.186 5.942-.092.465-.093.743-.186.929-.372.464-.278.557-.65.464-1.207-.278-3.621-.65-7.336-1.021-10.957 0-.093-.186-.093-.279-.093-.278.093-.65.186-.835.279-.186.185-.465.278-.65.464-.372.279-.743.65-1.115 1.021-.65.743-1.3 1.579-1.764 2.415-.557-.557-1.207-1.115-1.764-1.672-.465-.464-1.022-.836-1.579-1.207-.743-.464-1.207-1.021-1.485-.371 0 .093 0 .092-.093.185-.372 1.207-.279 3.993-.279 4.55.186 2.415.372 6.593 3.529 7.057zM120 190.872c-1.021 10.957 1.207 22.749 5.664 33.057.279-.279.465-.65.743-.929-3.9-9.75-5.85-20.707-5.107-31.014-.464-.372-.929-.743-1.3-1.114z" fill="#CE7057"/><path fill-rule="evenodd" clip-rule="evenodd" d="M120 190.872a8498.71 8498.71 0 0 0 29.343-2.786c.093.278.185.65.278.928-9.378.929-18.85 1.858-28.414 2.786-.371-.186-.836-.557-1.207-.928z" fill="#CE7057"/><path fill-rule="evenodd" clip-rule="evenodd" d="M125.664 223.929c-.464 0 .557-.929.743-.929 3.807-.279 24.793-2.229 24.793-2.229v1.115c0-.093-21.357 1.857-25.536 2.043z" fill="#EFAE92"/><path fill-rule="evenodd" clip-rule="evenodd" d="M173.857 126.707c-.093 0-.093 0 0 0-.65.093-1.3.186-1.95.186h-.371c-.186 0-.372 0-.557.093l-2.229.278c-.743 1.208-1.3 1.579-1.764 1.486-.279 0-.558-.186-.836-.464-.093-.093-.186-.186-.186-.279-.371-.464-.743-1.021-.928-1.021-.186 0-3.065.093-6.779.371h-.278c-1.022.093-2.043.093-3.158.186.279 6.5 5.572 11.7 12.072 11.7 2.971 0 5.757-1.114 7.8-2.972 0-.65.093-1.207.093-1.857V133.3c0-.093.092-.186.092-.279 0-.185.093-.557.093-.835 0-1.672-.65-4.365-.928-5.293-.186-.093-.186-.186-.186-.186z" fill="#9E3B3B"/><path fill-rule="evenodd" clip-rule="evenodd" d="M137.086 151.964c0-1.114-.186-2.228-.372-3.25-1.207 0-2.228-.092-3.157-.092H133c-1.857 0-2.972-.093-3.157-.093-.279 0-.65.743-1.207 1.3-.279.278-.557.371-.836.464-.557.093-1.3-.279-2.229-1.486l-2.414-.185h-.743l-2.507-.186s-.743 3.621-.836 5.664v.929c0 .092 0 .185.093.278l-.093 7.429a11.852 11.852 0 0 0 5.943 1.578c6.686 0 12.072-5.571 12.072-12.35zm-10.029 30.643h-.093c-.371 0-.743.093-.928.093h-.279c-.186 0-.279.186-.557.464-.093.186-.279.372-.372.465-.185.185-.371.464-.557.65l-.093.093-.092.092c-.279.186-.558.372-.836.465-.279.092-.65 0-1.022-.186a11.64 11.64 0 0 0-.928-.279c-.093 0-.186-.092-.372-.092-.835-.279-1.857-.558-2.507-.743h-3.343s-1.021 1.95-1.764 4.085l-.278.836c-.093.372-.279.743-.372 1.114-.093.186-.093.372-.093.558 0 .092 0 .185-.093.278a5.39 5.39 0 0 0-.093 1.114v.279c-.185 1.578-.371 3.25-.371 4.829 1.3.464 2.693.742 4.179.742 6.685 0 12.071-5.478 12.071-12.257 0-1.021-.093-1.95-.371-2.878h-.372c-.185.278-.371.278-.464.278z" fill="#CE7057"/><path fill-rule="evenodd" clip-rule="evenodd" d="M154.729 196.907l-7.058 1.579c-.743.185-1.392-.279-1.578-1.022l-.743-3.528c-.186-.743.279-1.486 1.021-1.579l7.058-1.579c.742-.185 1.392.279 1.578 1.022l.743 3.529c.093.742-.371 1.485-1.021 1.578z" fill="#FFC392"/><path d="M147.857 197.186a.509.509 0 0 1-.464-.279l-.558-2.693a.51.51 0 0 1 .279-.464.51.51 0 0 1 .464.279l.557 2.693c0 .278-.092.464-.278.464zm3.993-.836a.511.511 0 0 1-.465-.279l-.557-2.692c0-.186.093-.372.279-.465.185 0 .371.093.464.279l.557 2.693c0 .185-.093.464-.278.464zm-1.765.372l-.65.092c-.278.093-.557-.092-.557-.371l-.464-2.414c-.093-.279.093-.557.371-.65l.65-.093c.279-.093.557.093.557.371l.465 2.414c.093.279-.093.558-.372.651zm4.086-.836l-.65.093c-.278.092-.557-.093-.557-.372l-.464-2.414c-.093-.279.093-.557.371-.65l.65-.093c.279-.093.557.093.557.371l.465 2.415c.092.278-.093.557-.372.65z" fill="#E19671"/><path d="M116.75 195.886c4.923 0 8.914-4.075 8.914-9.1 0-5.026-3.991-9.1-8.914-9.1s-8.914 4.074-8.914 9.1c0 5.025 3.991 9.1 8.914 9.1z" fill="#FFC400"/><path d="M116.193 194.586c4.923 0 8.914-4.074 8.914-9.1s-3.991-9.1-8.914-9.1c-4.924 0-8.915 4.074-8.915 9.1s3.991 9.1 8.915 9.1z" fill="#FFF0B3"/><path d="M125.2 162.271c4.923 0 8.914-4.074 8.914-9.1 0-5.025-3.991-9.1-8.914-9.1s-8.914 4.075-8.914 9.1c0 5.026 3.991 9.1 8.914 9.1z" fill="#FFC400"/><path d="M124.178 160.507c4.924 0 8.915-4.074 8.915-9.1s-3.991-9.1-8.915-9.1c-4.923 0-8.914 4.074-8.914 9.1s3.991 9.1 8.914 9.1z" fill="#FFF0B3"/><path d="M167.264 137.943c4.564 0 8.264-3.783 8.264-8.45s-3.7-8.45-8.264-8.45c-4.564 0-8.264 3.783-8.264 8.45s3.7 8.45 8.264 8.45z" fill="#FFC400"/><path d="M167.914 136.736c4.564 0 8.265-3.784 8.265-8.45 0-4.667-3.701-8.45-8.265-8.45s-8.264 3.783-8.264 8.45c0 4.666 3.7 8.45 8.264 8.45z" fill="#FFF0B3"/><path fill-rule="evenodd" clip-rule="evenodd" d="M121.207 155.957c.093.464.464.743.929.743l4.921-.743c.464-.093.743-.464.743-.928l-.743-5.2.372.278c.371.279.928.186 1.114-.186l.65-.835c.278-.372.186-.836-.186-1.207l-2.414-1.858c-.186-.185-.372-.185-.65-.185l-2.786.371-2.786.372c-.185 0-.464.185-.557.371l-1.857 2.414c-.278.372-.186.929.186 1.207l.836.651c.371.278.928.185 1.114-.186l.278-.372.836 5.293z" fill="#FFE6AE"/><path d="M127.15 156.329l-4.922.742c-.65.093-1.3-.371-1.392-1.114l-.558-4.271c-.092.093-.278.093-.371.186-.371.092-.65 0-.929-.279l-.835-.65c-.279-.186-.465-.464-.465-.836-.092-.371 0-.65.279-.928l1.764-2.415c.186-.278.465-.464.836-.464l5.571-.743c.372 0 .65 0 .929.279l2.414 1.857c.557.464.65 1.207.279 1.764l-.65.836c-.186.279-.464.464-.743.464h-.557l.557 4.365c0 .464-.557 1.114-1.207 1.207zm-6.686-6.036h.186c.186 0 .278.186.278.371l.743 5.2c0 .186.279.372.465.372l4.921-.743c.186 0 .371-.279.371-.464l-.742-5.2a.71.71 0 0 1 .185-.465c.093-.092.372-.092.465 0l.371.279c.093.093.186.093.279.093.092 0 .185-.093.278-.186l.65-.836c.093-.185.093-.464-.093-.557l-2.414-1.857c-.093-.093-.186-.093-.279-.093l-5.571.743c-.093 0-.186.093-.279.093l-1.857 2.414c-.093.093-.093.186-.093.372 0 .093.093.185.186.278l.836.65c.093.093.186.093.278.093.093 0 .186-.093.279-.186l.279-.371c.092.093.185 0 .278 0z" fill="#F49B23"/><path d="M120.557 150.757l.185 1.579 6.593-.929-.186-1.578-6.592.928z" fill="#FFE6AE"/><path d="M127.428 151.872l-6.593.928c-.185 0-.464-.093-.464-.371l-.186-1.672c0-.185.093-.464.372-.464l6.593-.929c.185 0 .464.093.464.372l.186 1.671c0 .186-.186.372-.372.465zm-6.314 0l5.757-.836-.093-.836-5.757.836.093.836z" fill="#F49B23"/><path d="M124.643 145.464l-1.486.186-1.486.186c-.464.093-.743.464-.743.928l.186 1.486c.093.371.464.557.836.464l1.485-.742 1.579.278c.371.093.743-.279.65-.65l-.186-1.486a.694.694 0 0 0-.835-.65z" fill="#FFE6AE"/><path d="M125.293 148.714h-.279l-1.486-.278-1.3.65c-.278.186-.65.093-.928 0-.279-.186-.465-.372-.465-.743l-.185-1.486c-.093-.743.371-1.3 1.021-1.393l2.879-.371c.65-.093 1.3.371 1.393 1.114l.185 1.486c0 .279-.093.65-.278.836-.093.092-.279.185-.557.185zm-1.858-1.114h.093l1.579.279c.093 0 .093 0 .093-.093 0 0 .093-.093 0-.093l-.186-1.486c0-.278-.186-.371-.464-.371l-2.879.371c-.278 0-.371.279-.371.464l.185 1.486c0 .093.093.093.093.093h.186l1.486-.743a.287.287 0 0 0 .185.093z" fill="#F49B23"/><path d="M123.157 145.65l-1.3.186c-.372.093-.372.65-.186.835l1.022.929c.464.371 1.021.279 1.3-.186l.742-1.207c.186-.279-.092-.836-.371-.743l-1.207.186z" fill="#FFE6AE"/><path d="M123.528 148.343c-.371.093-.743-.093-1.021-.371l-1.022-.929a1.048 1.048 0 0 1-.278-1.021c.093-.279.371-.465.65-.558l2.507-.371c.279 0 .557.093.743.371.186.279.278.743.093 1.022l-.743 1.207c-.186.371-.557.557-.929.65zm-1.485-2.136v.186l1.021.928c.186.186.464.186.65-.092l.743-1.207v-.093l-2.414.278zm-1.486 4.829c-.186 0-.464-.093-.464-.372l-.186-1.114c0-.186.093-.464.371-.464.186 0 .465.093.465.371l.185 1.114c0 .186-.185.372-.371.465zm6.593-.929c-.186 0-.464-.093-.464-.371l-.186-1.114c0-.186.093-.465.371-.465.186 0 .465.093.465.372l.185 1.114c0 .186-.185.371-.371.464z" fill="#F49B23"/><path fill-rule="evenodd" clip-rule="evenodd" d="M121.207 183.629c-.279-.557-.464-1.022-.464-1.115 0-.092-.093-.185-.093-.278 0 0 0-.093-.093-.093 0-.093-.093-.093-.093-.186 0 0 0-.093-.093-.093 0-.092-.093-.092-.093-.092l-.093-.093-.185-.186-.186-.186h-.093c-.093 0-.093-.093-.186-.093h-.092c-.093 0-.093-.092-.186-.092h-.093c-.093 0-.093-.093-.186-.093h-.093c-.092 0-.185-.093-.278-.093H117.4l-4.365.836c-.092 0-.185 0-.278.092h-.093c-.093 0-.093 0-.186.093h-.093c-.092 0-.092.093-.185.093h-.093c-.093 0-.093.093-.186.093-.093.093-.186.093-.186.186l-.092.092c-.093 0-.093.093-.186.093l-.093.093-.093.093s0 .093-.093.093c0 .093-.093.093-.093.186v.092c-.092.093-.092.186-.092.186 0 .093-.093.093-.093.186v.093c0 .093 0 .093-.093.186v.092c0 .093 0 .093-.093.186v.372c0 .278-.186 4.085-.186 4.178v.557a2.008 2.008 0 0 0 2.322 1.672c.371-.093.65-.186.928-.372.279-.278.557-.65.65-1.021l.279-.836c.186-.65.743-.928 1.486-1.114l.557-.093c.743-.093 1.393-.093 1.764.557l.557.65c.279.372.557.557.929.743.278.093.65.186 1.021.093 1.114-.186 1.764-1.3 1.579-2.322 0-.185-.093-.371-.186-.557 0 0-.279-.65-.557-1.393l-.65-1.485z" fill="#FFE6AE"/><path d="M121.021 189.664c-.371.093-.836 0-1.207-.093a2.529 2.529 0 0 1-1.114-.835l-.465-.65c-.185-.186-.464-.465-1.3-.372l-.557.093c-.835.186-1.021.557-1.114.743l-.279.836c-.185.464-.464.928-.835 1.207-.279.279-.65.464-1.115.464-1.3.279-2.6-.65-2.878-2.043 0-.185-.093-.464 0-.742.093-1.393.186-3.9.186-4.179 0-.093 0-.186.092-.279v-.092c0-.093 0-.186.093-.279v-.093c0-.093.093-.093.093-.186v-.093c0-.092.093-.185.093-.185v-.093c.093-.093.093-.186.186-.279v-.093l.185-.185.093-.093.186-.186.093-.093.186-.185.092-.093c.093-.093.186-.093.279-.186.093-.093.186-.093.186-.093h.093c.092 0 .185-.093.185-.093h.093c.093 0 .093-.092.186-.092h.093c.092 0 .185-.093.278-.093l4.364-.836h1.393c.093 0 .186.093.279.093h.093c.093 0 .186.093.186.093h.092c.093 0 .093.093.186.093 0 0 .093-.001.093.092.093 0 .093.093.186.093h.093c.092.093.185.093.278.186l.186.186.093.093.185.185s0 .093.093.093c0 .093.093.093.093.186l.093.093c.093.092.093.185.186.278 0 0 .093.093.464 1.207l.557 1.3c.279.65.557 1.207.557 1.393.093.186.186.465.186.65.186 1.579-.743 2.879-2.043 3.157zm-2.228-2.228l.557.743c.185.278.464.464.743.557.278.093.557.093.742.093.836-.186 1.393-1.022 1.208-1.857 0-.093-.093-.279-.093-.372 0 0-.279-.65-.557-1.393l-.558-1.3c-.371-.928-.464-1.114-.464-1.114 0-.093-.093-.093-.093-.186v-.093l-.093-.093-.092-.092-.093-.093-.093-.093-.093-.093c-.093-.093-.093-.093-.186-.093h-.093l-.092-.093h-.093l-.093-.092h-.093c-.093 0-.093-.001-.186-.093-.093 0-.185-.093-.278-.093h-1.115l-4.364.835c-.093 0-.186.001-.186.093-.092 0-.093 0-.185.093h-.093c-.093 0-.093 0-.186.093h-.093c-.093 0-.093.093-.185.093-.093 0-.093.093-.186.093h-.093l-.093.093-.093.092-.093.093-.092.093-.093.093c-.093.093-.093.186-.093.186 0 .093-.093.093-.093.186v.092c0 .093 0 .093-.093.186v.557c0 .186-.093 1.764-.186 4.086v.557c.186.836.929 1.393 1.765 1.3.278 0 .464-.186.65-.278.278-.186.464-.465.557-.836l.278-.836c.186-.743.836-1.207 1.858-1.393l.557-.093c.835-.557 1.578-.278 2.043.372z" fill="#F49B23"/><path d="M118.607 187.157l-4.365.836c-.464.093-1.021.093-1.485-.093-.279-.093-.372-.279-.279-.557.093-.279.279-.372.557-.279.372.093.743.093 1.115.093l4.364-.836c.371-.093.836-.278 1.114-.557.186-.185.464-.093.65.093s.093.465-.093.65c-.464.279-1.021.557-1.578.65z" fill="#F49B23"/><path fill-rule="evenodd" clip-rule="evenodd" d="M114.521 184l-.371.093-.093-.371a.698.698 0 0 0-.65-.465.698.698 0 0 0-.464.65l.093.372-.372.093a.696.696 0 0 0-.464.65.699.699 0 0 0 .65.464l.371-.093.093.371c0 .093 0 .093.093.186.093.186.279.279.557.279a.698.698 0 0 0 .464-.65l-.092-.372.371-.093a.698.698 0 0 0 .464-.65c-.093-.371-.371-.557-.65-.464zm2.879 0c-.372.093-.65.464-.557.836.093.371.464.65.836.557.371-.093.649-.464.557-.836-.093-.371-.465-.65-.836-.557zm1.114-1.764c-.371.093-.65.464-.557.835.093.372.464.651.836.558.371-.093.65-.464.557-.836-.093-.371-.464-.65-.836-.557z" fill="#F49B23"/><path d="M172.093 132.65c.742.093 1.392-.464 1.485-1.207l.557-4.829c.093-.742-.464-1.392-1.207-1.485l-8.264-.929c-.743-.093-1.393.464-1.486 1.207l-.557 4.829c-.093.743.464 1.393 1.207 1.486l8.265.928z" fill="#FFE6AE"/><path d="M172.093 133.021l-8.265-.928c-.928-.093-1.671-1.022-1.578-1.95l.557-4.829a1.78 1.78 0 0 1 1.95-1.578l8.264.928c.929.093 1.672 1.022 1.579 1.95l-.557 4.829c-.186 1.021-1.022 1.671-1.95 1.578zm-7.429-8.45c-.557-.092-.929.279-1.021.836l-.558 4.829c-.092.557.279 1.021.836 1.021l8.264.929c.558.093.929-.279 1.022-.836l.557-4.829c.093-.557-.279-1.021-.836-1.021l-8.264-.929z" fill="#F49B23"/><path d="M172.928 125.036l-1.3-.186-.371-.836c-.186-.371-.464-.557-.836-.649l-2.785-.279c-.372 0-.743.093-.929.464l-.557.743-1.3-.186c-.743-.093-1.393.465-1.486 1.207l-.093 1.115 10.865 1.207.092-1.114c-.092-.65-.557-1.393-1.3-1.486z" fill="#FFE6AE"/><path d="M173.95 128.1l-10.864-1.207c-.186 0-.372-.186-.372-.464l.093-1.115a1.78 1.78 0 0 1 1.95-1.578l1.114.093.465-.557c.278-.372.835-.65 1.299-.558l2.786.279c.464.093.929.372 1.207.836l.279.65 1.114.093c.929.092 1.672 1.021 1.579 1.95l-.093 1.114c-.186.278-.371.464-.557.464zm-10.4-2.043l10.121 1.115.093-.65c.093-.558-.278-1.022-.836-1.022l-1.3-.186c-.185 0-.278-.092-.278-.278l-.372-.836c-.092-.186-.278-.371-.557-.371l-2.786-.279a1 1 0 0 0-.649.279l-.558.743c-.092.092-.185.185-.371.185l-1.3-.185c-.557-.093-.929.278-1.021.835l-.186.65z" fill="#F49B23"/><path d="M168.379 130.793a2.414 2.414 0 1 0 0-4.829 2.414 2.414 0 0 0 0 4.829z" fill="#FFE6AE"/><path d="M168.1 131.257a2.83 2.83 0 0 1-2.507-3.157c.185-1.578 1.578-2.693 3.064-2.507a2.83 2.83 0 0 1 2.507 3.157c-.186 1.579-1.578 2.693-3.064 2.507zm.557-4.921c-1.114-.093-2.043.65-2.229 1.764-.185 1.114.65 2.136 1.765 2.229 1.114.093 2.043-.65 2.228-1.765.186-1.114-.743-2.042-1.764-2.228z" fill="#F49B23"/><path d="M168.378 129.772c.718 0 1.3-.624 1.3-1.393 0-.77-.582-1.393-1.3-1.393-.718 0-1.3.623-1.3 1.393 0 .769.582 1.393 1.3 1.393zm1.022-4.643l-1.3-.186c-.186 0-.372-.186-.372-.464 0-.186.186-.372.465-.372l1.3.186c.185 0 .371.186.371.464 0 .186-.186.372-.464.372z" fill="#F49B23"/><path fill-rule="evenodd" clip-rule="evenodd" d="M189.271 212.507c-.65.279-1.3-.093-1.486-.743l-25.721-70.107c-.186-.65.093-1.3.743-1.578.65-.279 1.3.092 1.486.742l25.721 70.108c.186.65-.186 1.393-.743 1.578z" fill="#FFC392"/><path fill-rule="evenodd" clip-rule="evenodd" d="M190.385 212.136l-2.228.836-5.85-15.879 2.229-.836 5.849 15.879z" fill="#CE7057"/><path d="M220.75 198.764s4.179-14.764 14.857-28.693c10.679-13.928 24.607-2.414 16.436 11.236-8.172 13.65-16.9 12.072-20.893 20.707l-10.4-3.25z" fill="#FF9494"/><path opacity=".3" d="M235.05 171.279c9.936-12.907 22.75-3.807 17.736 8.45 6.221-12.907-6.965-22.936-17.272-9.658-5.385 7.058-9.1 14.301-11.514 19.779 2.414-5.293 6.036-12.071 11.05-18.571z" fill="#fff"/><path d="M224.929 199.043s7.707-26.464 16.992-26c7.986.464 6.408 9.193.65 14.3-3.807 3.343-12.721 8.078-15.228 13.835l-2.414-2.135z" fill="#D15D5D"/><path d="M194.564 191.15s2.507-15.136 11.607-30.178c9.1-15.043 24.236-5.2 17.55 9.285-6.686 14.486-15.414 13.929-18.478 23.029l-10.679-2.136z" fill="#FF9494"/><path opacity=".3" d="M205.8 162.086c8.45-14.022 22.1-6.407 18.571 6.407 4.736-13.557-9.471-22.007-18.2-7.614-4.55 7.614-7.521 15.228-9.286 20.892 1.858-5.478 4.643-12.535 8.915-19.685z" fill="#fff"/><path d="M198.185 190.872s4.736-27.208 14.022-27.765c7.985-.464 7.335 8.45 2.228 14.207-3.435 3.807-11.793 9.565-13.557 15.507l-2.693-1.949z" fill="#D15D5D"/><path d="M234.121 208.422c-.186.278-.464.557-.836.649-.464.279-1.021.279-1.578.093l-42.064-12.907a2.525 2.525 0 0 1-1.393-1.207c-.093-.186-.186-.371-.186-.557-.186-.929.279-1.857 1.021-2.321 2.693-1.579 6.965-4.272 17.179-2.229.279-.093.464-.279.464-.557.465-1.579 2.229-2.879 3.807-2.322.65.186 1.115.65 1.486 1.115.464.742 1.3.928 2.136.65.557-.186 1.207-.279 1.857-.093 1.579.464 2.414 2.043 2.043 3.621-.093.279.093.65.278 1.022 8.358 3.9 14.022 9.564 15.786 12.442.557.836.464 1.858 0 2.601z" fill="#FAD025"/><path d="M234.028 208.329c-.186.278-.464.557-.835.65-.465.185-1.022.278-1.579.092l-42.064-12.907a2.528 2.528 0 0 1-1.393-1.207c-.093-.186-.186-.371-.186-.557.186-.186.372-.464.65-.557 3.064-1.857 10.586-4.829 23.957-.743 13.093 3.993 18.85 10.772 21.079 14.3.186.372.371.65.371.929z" fill="#F9A214"/><path d="M216.664 191.429c-.371-.372-.836-.557-1.114-.65-.279-.093-.836-.186-1.3-.093-.465.093-.743-.279-.557-.464.185-.186.371-.372.65-.465.278-.092.464-.185.742-.278.279 0 .558 0 .836.092.279.093.557.186.743.372.186.186.371.371.464.65.093.279.186.464.279.743-.093.278-.464.464-.743.093zm-5.571-1.672c-.372-.371-.836-.557-1.115-.65-.278-.093-.835-.185-1.3-.093-.464.093-.743-.278-.557-.464.186-.186.372-.371.65-.464.279-.093.464-.186.743-.279.279 0 .557 0 .836.093.278.093.557.186.743.372.185.185.371.371.464.65.093.278.186.464.278.742 0 .279-.371.465-.742.093z" fill="#FFE6B6"/><path d="M229.664 203.314c-.928-.928-1.95-1.857-3.157-2.693-.929-.65-1.95-1.3-2.971-1.95-10.122-5.942-25.815-9.471-32.5-5.292-3.158 2.042-6.036 8.821-8.265 15.507-.185.464-.278.928-.371 1.3-.279 1.021-.372 2.135-.464 3.157-.186 5.664 2.6 11.05 7.335 13.928.279.186.557.372.836.465.743.371 1.579.743 2.414 1.021l12.629 3.9 6.221 1.857c.836.279 1.672.464 2.6.557.279 0 .65.093.929.093 1.393.093 2.693-.092 3.993-.371 3.807-2.229 6.221-6.779 7.8-11.979 2.321-6.778 2.878-14.764 2.971-19.5z" fill="#FF9494"/><path d="M230.5 223.557c.743-2.785 1.393-5.571 1.764-8.171.557-3.993.557-7.429-.557-9.472-.464-.835-1.207-1.764-2.043-2.6-.093 4.736-.743 12.629-2.786 19.593-1.578 5.2-3.992 9.75-7.8 11.979 5.293-1.207 9.843-5.479 11.422-11.329z" fill="#E27979"/><path d="M213.878 235.164c-.835-.092-1.578-.278-2.414-.557l-18.85-5.757c-.836-.279-1.579-.557-2.321-.929 3.342-3.992 8.821-5.849 14.114-4.271 3.993 1.207 6.964 4.179 8.45 7.707.557 1.207.928 2.507 1.021 3.807z" fill="#FFBBB8"/><path d="M200.878 219.564c-.093 0-.278-.093-.278-.278l.093-2.507c0-.186.092-.279.278-.279.093 0 .279.093.279.279l-.093 2.507c0 .185-.093.278-.279.278z" fill="#A12E3D"/><path d="M203.757 216.036c-.279.835-2.228 1.671-3.064 1.393-.743-.279-2.043-2.043-1.764-2.879.278-.836 1.485-1.207 2.878-.836 1.3.465 2.229 1.486 1.95 2.322z" fill="#A12E3D"/><path d="M203.2 215.943c-.279.279-.372-.186-.743-.464-.371-.279-.65-.465-.464-.743.278-.279.65-.186 1.021.093.372.371.464.835.186 1.114z" fill="#FF9AB3"/><path d="M199.393 224.857c-6.129-1.857-6.129-6.5-5.572-7.15.557-.65 1.579-.743 2.229-.093.371.372.835.743 1.393 1.022.092 0 .092.093.185.093.929.557 3.529.464 3.529.464s1.95 1.578 3.064 1.578h.279c.65 0 1.207 0 1.671-.093.836-.092 1.671.465 1.764 1.393.093.743-2.414 4.643-8.542 2.786z" fill="#6D1B40"/><path d="M204.407 220.679c-.093.464-.371.835-.928 1.114l-.093.093c-2.136 1.114-4.736.186-5.85-1.95-.186-.464-.279-.836-.093-1.3.093 0 .093.093.186.093.928.557 3.528.464 3.528.464s1.95 1.578 3.064 1.578c0-.092.093-.092.186-.092z" fill="#fff"/><path fill-rule="evenodd" clip-rule="evenodd" d="M191.964 197.371s-1.857-.371-2.228-2.042c-.093-.186-.372-.279-.465 0-.278.742-.371 1.949 1.393 2.878l1.3-.836zm-1.3 1.393s-1.857-.371-2.228-2.043c-.093-.185-.372-.278-.465 0-.278.743-.371 1.95 1.393 2.879l1.3-.836zm2.786-2.414s-1.764-.743-1.857-2.414c0-.186-.279-.279-.372-.093-.371.65-.65 1.857.836 3.064l1.393-.557z" fill="#D15D5D"/><path fill-rule="evenodd" clip-rule="evenodd" d="M198.278 196.629c-4.55-1.579-9.471.928-11.05 5.571-1.578 4.643.836 9.75 5.386 11.329 4.55 1.578 9.472-.929 11.05-5.572 1.579-4.735-.836-9.75-5.386-11.328z" fill="#fff"/><path fill-rule="evenodd" clip-rule="evenodd" d="M192.15 210.929c4.55 1.578 9.471-.929 11.05-5.572.371-1.114.464-2.228.464-3.343.65 1.858.743 3.993.093 5.943-1.578 4.643-6.5 7.15-11.05 5.572-3.436-1.208-5.664-4.457-5.85-8.079.743 2.507 2.693 4.55 5.293 5.479z" fill="#E3EDEE"/><path fill-rule="evenodd" clip-rule="evenodd" d="M220.657 208.979s2.136 1.114 3.807-.279c.186-.186.557 0 .464.279-.278.928-1.114 2.135-3.528 1.764l-.743-1.764zm.186 2.414s2.135 1.114 3.807-.279c.185-.185.557 0 .464.279-.279.928-1.114 2.136-3.528 1.764l-.743-1.764zm-.743-4.271s2.228.65 3.714-.929c.186-.186.557-.093.464.186-.093.928-.742 2.321-3.157 2.414l-1.021-1.671z" fill="#D15D5D"/><path fill-rule="evenodd" clip-rule="evenodd" d="M215.921 202.479c-4.735-1.672-9.935.928-11.514 5.757-1.579 4.828.929 10.121 5.664 11.792 4.736 1.672 9.936-.928 11.515-5.757 1.578-4.828-.929-10.121-5.665-11.792z" fill="#fff"/><path fill-rule="evenodd" clip-rule="evenodd" d="M208.957 217.15c4.736 1.672 9.936-.929 11.514-5.757a8.916 8.916 0 0 0 .372-4.643c1.207 2.229 1.578 5.014.743 7.614-1.579 4.829-6.779 7.429-11.515 5.758-3.25-1.115-5.478-3.9-6.035-7.15 1.021 1.857 2.785 3.435 4.921 4.178z" fill="#E3EDEE"/><path fill-rule="evenodd" clip-rule="evenodd" d="M206.357 210.464c.836 3.065 3.993 4.829 6.964 3.9 2.972-.835 4.736-4.085 3.9-7.15-.835-3.064-3.993-4.828-6.964-3.9-2.971.836-4.736 4.086-3.9 7.15z" fill="#3A3A3A"/><path fill-rule="evenodd" clip-rule="evenodd" d="M206.914 207.307a2.44 2.44 0 0 0 3.158 1.672c1.3-.465 2.042-1.858 1.671-3.158a2.438 2.438 0 0 0-3.157-1.671c-1.3.371-2.043 1.764-1.672 3.157zm4.272 2.972c.557.557 1.485.65 2.135 0 .558-.557.558-1.579 0-2.136-.557-.557-.928-.093-1.578.464-.557.557-1.114 1.022-.557 1.672z" fill="#fff"/><path fill-rule="evenodd" clip-rule="evenodd" d="M189.178 204.893c.836 3.064 3.993 4.829 6.965 3.9 2.971-.836 4.735-4.086 3.9-7.15-.836-3.064-3.993-4.829-6.965-3.9-3.064.928-4.735 4.178-3.9 7.15z" fill="#3A3A3A"/><path fill-rule="evenodd" clip-rule="evenodd" d="M189.736 201.829a2.439 2.439 0 0 0 3.157 1.671c1.3-.464 2.043-1.857 1.671-3.157a2.438 2.438 0 0 0-3.157-1.672c-1.3.372-2.043 1.765-1.671 3.158zm4.55 2.693c.557.557 1.485.65 2.135 0 .65-.65.557-1.579 0-2.136-.557-.557-.928-.093-1.578.464-.557.65-1.114 1.114-.557 1.672z" fill="#fff"/><path d="M173.857 224.3c-.557-2.135-6.593 1.022-8.729 2.693.836-2.971 6.686-6.036 5.85-8.728-.835-2.786-10.585 3.25-12.721 7.428.186-1.671.371-3.25.557-4.921.093-.65 0-1.486-.557-1.765-.464-.185-.929.186-1.3.465-.929.835-1.393 3.064-2.136 3.064-.743 0-2.414-6.871-6.221-6.593-3.715.279-2.043 7.893-4.364 7.8-2.322 0-5.665-5.85-7.522-3.714-1.857 2.135 1.857 9.936 2.414 10.586 1.486 1.764 2.043 1.95 4.272 1.857 3.343-.186 6.778-.186 10.121-.093 3.157.093 6.686 1.021 9.843.835 3.9-.278 11.05-6.778 10.493-8.914z" fill="#FECDDF"/><path d="M153.521 232.379c-3.342-.186-6.778-.093-10.121.093h-.929s-3.157-4.458-2.321-6.593c.836-2.136 4.829 3.807 6.314 3.435 1.486-.371 1.115-3.993 1.857-4.364.743-.371 1.579 2.414 1.579 3.343.279-1.114 1.579-2.972 2.136-2.879.65.093.65 1.765.928 2.6.65-.835 1.672-3.25 2.507-3.343.836-.092 1.3 3.808 1.115 4.736 1.95-2.785 5.571-6.221 6.5-6.314.928-.093-1.393 4.828-3.065 6.686 1.486-.093 1.765-1.672 2.415-1.672.65 0 1.114 1.95.278 2.693 2.507-.743 4.086-2.321 5.015-1.671.928.557-1.208 2.693-3.158 3.807-.371.093-.835.186-1.207.186-3.157.278-6.685-.651-9.843-.743z" fill="#EFACC8"/><path d="M89.821 231.636c-.557-2.136-6.593 1.021-8.728 2.693.835-2.972 6.685-6.036 5.85-8.729-.836-2.786-10.586 3.25-12.722 7.429.186-1.672.372-3.25.557-4.922.093-.65 0-1.485-.557-1.764-.464-.186-.928.186-1.3.464-.928.836-1.393 3.065-2.135 3.065-.743 0-2.415-6.872-6.222-6.593-3.714.278-2.043 7.893-4.364 7.8-2.322 0-5.664-5.85-7.522-3.714-1.857 2.135 1.858 9.935 2.415 10.585 1.485 1.764 2.042 1.95 4.271 1.857 3.343-.185 6.779-.185 10.122-.093 3.157.093 6.685 1.022 9.842.836 3.993-.371 11.143-6.871 10.493-8.914z" fill="#FECDDF"/><path d="M69.485 239.622c-3.342-.186-6.778-.093-10.121.092h-.929s-3.157-4.457-2.321-6.592c.836-2.136 4.829 3.807 6.314 3.435 1.486-.371 1.115-3.993 1.857-4.364.743-.371 1.579 2.414 1.579 3.343.278-1.115 1.579-2.972 2.136-2.879.65.093.65 1.765.928 2.6.65-.835 1.672-3.25 2.507-3.343.836-.093 1.3 3.808 1.115 4.736 1.95-2.786 5.571-6.221 6.5-6.314.928-.093-1.393 4.828-3.065 6.685 1.486-.092 1.765-1.671 2.415-1.671.65 0 1.114 1.95.278 2.693 2.507-.743 4.086-2.321 5.015-1.671.928.557-1.208 2.692-3.158 3.807-.371.092-.835.185-1.207.185-3.157.372-6.593-.557-9.843-.742z" fill="#EFACC8"/><path d="M127.707 111.079h-1.022c-.278 0-.557-.279-.742-.557l-.279-.929c-.093-.279-.186-.464-.279-.65.279 2.971-1.764 5.757-4.735 6.221a5.045 5.045 0 0 1-1.672 0c.279.465.836.929 2.136.929h.929c.278 0 .557.279.743.557l.371.929c.557 1.764 1.671 1.857 2.228 1.764.558-.093 1.579-.557 1.579-2.414v-1.022c0-.278.186-.557.464-.743l.929-.371c1.764-.65 1.857-1.672 1.764-2.229-.278-.464-.557-1.485-2.414-1.485z" fill="#FFDC00"/><path d="M125.293 108.943c-.65-1.114-1.486-1.207-1.95-1.114-.557.093-1.579.557-1.579 2.414v.929c0 .278-.186.557-.464.742l-.929.372c-1.764.65-1.857 1.671-1.671 2.321 0 .186.093.372.185.65a5.045 5.045 0 0 0 1.672 0c2.971-.557 5.014-3.25 4.736-6.314z" fill="#FFF0B3"/><path d="M206.571 132.993l-1.021-.557c-.279-.186-.465-.557-.465-.836l.093-1.021v-.836a6.303 6.303 0 0 1-7.8 3.714c-.65-.186-1.207-.464-1.671-.835 0 .65.371 1.392 1.671 2.042l.929.558c.278.185.464.557.464.835l-.093 1.114c-.278 2.043.743 2.693 1.393 2.879.65.186 1.764.279 2.786-1.578l.464-.929c.186-.279.464-.464.836-.464l1.021.092c2.043.279 2.693-.742 2.879-1.392.186-.558.464-1.765-1.486-2.786z" fill="#FFDC00"/><path d="M205.271 129.743c-.093-1.393-.835-1.95-1.393-2.043-.65-.186-1.764-.279-2.692 1.579l-.465.928c-.185.279-.464.464-.836.464l-1.114-.092c-2.043-.279-2.6.743-2.785 1.393-.093.185-.093.464-.093.742.464.372 1.114.65 1.671.836 3.157 1.022 6.5-.743 7.707-3.807z" fill="#FFF0B3"/><path d="M95.921 144.321h-1.114c-.371 0-.65-.278-.743-.557l-.371-1.021c-.093-.279-.186-.557-.372-.743.279 3.343-1.95 6.407-5.2 6.964-.65.093-1.3.093-1.857.093.279.557.929 1.022 2.322 1.022H89.7c.371 0 .65.278.743.557l.371 1.021c.65 1.95 1.857 2.043 2.507 1.95.65-.093 1.765-.65 1.765-2.693V149.8c0-.371.278-.65.557-.836l1.021-.371c1.95-.743 2.043-1.857 1.95-2.507-.279-.65-.557-1.765-2.693-1.765z" fill="#FFDC00"/><path d="M93.229 142c-.65-1.207-1.579-1.3-2.229-1.207-.65.093-1.764.65-1.671 2.693v1.114c0 .371-.279.65-.558.836l-1.021.371c-1.95.743-2.043 1.857-1.857 2.6 0 .186.093.465.278.743.65.093 1.207.093 1.857-.093a6.443 6.443 0 0 0 5.2-7.057z" fill="#FFF0B3"/></g><defs><linearGradient id="paint0_linear" x1="30.032" y1="60.063" x2="30.032" y2="244" gradientUnits="userSpaceOnUse"><stop stop-color="#fff"/><stop offset="1" stop-color="#D4FBE6"/></linearGradient><linearGradient id="paint1_linear" x1="88.373" y1="211.529" x2="83.302" y2="217.797" gradientUnits="userSpaceOnUse"><stop stop-color="#3F843F"/><stop offset="1" stop-color="#519B4C"/></linearGradient><linearGradient id="paint2_linear" x1="142.018" y1="148.94" x2="140.086" y2="161.558" gradientUnits="userSpaceOnUse"><stop offset=".017" stop-color="#EEA076"/><stop offset=".304" stop-color="#D38C6C"/><stop offset=".76" stop-color="#AD705D"/><stop offset="1" stop-color="#9E6558"/></linearGradient><linearGradient id="paint3_linear" x1="163.474" y1="208.853" x2="167.865" y2="227.766" gradientUnits="userSpaceOnUse"><stop offset=".017" stop-color="#EEA076"/><stop offset=".304" stop-color="#D38C6C"/><stop offset=".76" stop-color="#AD705D"/><stop offset="1" stop-color="#9E6558"/></linearGradient><clipPath id="clip0"><path fill="#fff" d="M0 0h244v244H0z"/></clipPath></defs></svg>